<svg xmlns="http://www.w3.org/2000/svg" viewBox="0 0 495.5835 452.85413"><defs><style>.cls-1{fill:#d44d47;}.cls-2{fill:#2a0000;}.cls-3{fill:#6e5d3f;}.cls-4{fill:#3e4347;}.cls-5{fill:#de2626;}.cls-6{fill:#51575c;}.cls-7{fill:#d6d600;}.cls-7,.cls-9{fill-rule:evenodd;}.cls-8{fill:#26292b;}.cls-9{fill:#620000;}</style></defs><title>Asset 5</title><g id="Layer_2" data-name="Layer 2"><g id="_1920_x_1080_px_Layout_5" data-name="1920 x 1080 px Layout 5"><g id="Text"><path d="M8.55078,359.235v21.03614c0,7.8164,3.4624,11.17383,8.23584,11.17383,5.19336,0,8.60352-3.4629,8.60352-11.17383V359.235h4.56445v20.66895c0,10.85937-5.666,15.26562-13.3252,15.26562-7.23925,0-12.69482-4.09179-12.69482-15.05566V359.235Z" transform="translate(-3.93457)"/><path d="M67.04736,399.78577c-4.04-1.10157-8.55175-2.51758-13.48242-4.0918a9.922,9.922,0,0,0-2.20312-.52442c-9.70508-.52441-15.52832-7.65917-15.52832-17.99414,0-10.85839,6.71484-18.51757,16.52441-18.51757,10.07227,0,15.791,8.02636,15.791,18.15039,0,8.709-4.25,14.63672-10.07227,16.73535v.21c3.51465.83887,7.34375,1.67773,10.38672,2.20312ZM63.32275,376.9137c0-7.39747-3.62011-14.53125-11.22656-14.53125-7.55469,0-11.38379,6.97656-11.38379,14.63574S44.5415,391.445,51.939,391.445C59.38818,391.445,63.32275,384.7301,63.32275,376.9137Z" transform="translate(-3.93457)"/><path d="M112.1665,393.01819a32.9107,32.9107,0,0,1-10.85839,1.9414c-5.35157,0-9.75782-1.36425-13.22071-4.66894-3.042-2.9375-4.93066-7.65918-4.93066-13.167.05273-10.49219,7.292-18.25586,19.14746-18.25586a22.5872,22.5872,0,0,1,8.81348,1.626l-1.10157,3.72461a18.31944,18.31944,0,0,0-7.8164-1.52148c-8.60352,0-14.2168,5.35058-14.2168,14.2168,0,8.9707,5.35059,14.26855,13.63965,14.26855a14.86637,14.86637,0,0,0,6.085-.94434V379.694H100.521v-3.67188h11.6455Z" transform="translate(-3.93457)"/><path d="M121.82373,382.73694c.10449,6.24219,4.03906,8.8125,8.708,8.8125a16.51373,16.51373,0,0,0,7.0293-1.31153l.7871,3.30567a20.18575,20.18575,0,0,1-8.44628,1.626c-7.81641,0-12.48536-5.19335-12.48536-12.7998,0-7.71191,4.51172-13.69238,11.96094-13.69238,8.23633,0,10.43945,7.23926,10.43945,11.9082a10.09665,10.09665,0,0,1-.21,2.15137Zm13.53418-3.30567c.05273-2.88476-1.20605-7.44922-6.40039-7.44922-4.66895,0-6.71484,4.249-7.082,7.44922Z" transform="translate(-3.93457)"/><path d="M168.51416,381.89709c0,9.39063-6.87207,13.27246-12.74707,13.27246-6.66309,0-12.06641-4.98339-12.06641-13.168,0-8.49805,5.77051-13.32422,12.64356-13.32422C163.42627,368.67737,168.51416,373.76623,168.51416,381.89709Zm-20.14453.1045c0,5.08886,2.57031,9.70507,7.71191,9.70507,5.03614,0,7.76367-4.61621,7.76367-9.75683,0-4.40723-2.04589-9.86231-7.76367-9.86231C150.41553,372.08752,148.36963,377.49084,148.36963,382.00159Z" transform="translate(-3.93457)"/><path d="M173.71143,389.87073a12.0926,12.0926,0,0,0,6.085,1.83593c3.35742,0,4.93164-1.67871,4.93164-3.77636,0-2.20313-1.31153-3.35742-4.72168-4.61719-4.56348-1.67871-6.71485-4.19629-6.71485-7.23926,0-4.03906,3.30469-7.39648,8.76075-7.39648a12.70134,12.70134,0,0,1,6.24316,1.52148l-1.1543,3.35742a10.3864,10.3864,0,0,0-5.24609-1.52148c-2.67578,0-4.19727,1.626-4.19727,3.51465,0,2.09863,1.46973,3.043,4.82715,4.35449,4.35352,1.626,6.66211,3.77734,6.66211,7.60645,0,4.459-3.46289,7.65917-9.49512,7.65917a14.46855,14.46855,0,0,1-7.13476-1.78417Z" transform="translate(-3.93457)"/><path d="M195.1167,377.49084c0-3.25293-.10449-5.876-.209-8.23632h4.14356l.21,4.30175h.10547a9.88215,9.88215,0,0,1,9.02246-4.8789c6.1377,0,10.75488,5.14062,10.75488,12.85254,0,9.12793-5.56152,13.63964-11.48925,13.63964a8.872,8.872,0,0,1-7.86915-3.9873h-.10449v13.79688H195.1167Zm4.56445,6.76661a7.19188,7.19188,0,0,0,.21,1.88867,7.06506,7.06506,0,0,0,6.92481,5.40332c4.8789,0,7.71094-3.98633,7.71094-9.80957,0-5.08887-2.67481-9.39063-7.55372-9.39063a7.31669,7.31669,0,0,0-6.97753,5.666,7.4922,7.4922,0,0,0-.31446,1.88867Z" transform="translate(-3.93457)"/><path d="M242.85889,388.50745a42.54415,42.54415,0,0,0,.36718,6.085h-4.14453l-.41992-3.2002h-.10449a9.599,9.599,0,0,1-7.76367,3.77734c-5.08887,0-7.76465-3.67187-7.76465-7.292,0-6.13769,5.45605-9.49511,15.26562-9.39062v-.57715c0-2.09766-.6289-5.875-5.7705-5.875a12.50558,12.50558,0,0,0-6.60938,1.88867l-1.0498-3.043a15.88126,15.88126,0,0,1,8.34179-2.20312c7.76367,0,9.65235,5.29883,9.65235,10.38672Zm-4.459-6.82032c-5.03613-.15722-10.75488.73438-10.75488,5.666a4.08274,4.08274,0,0,0,4.35449,4.40625,6.38928,6.38928,0,0,0,6.19043-4.249,7.6548,7.6548,0,0,0,.21-1.46875Z" transform="translate(-3.93457)"/><path d="M255.66162,361.90979v7.34473H262.271v3.46191h-6.60938v13.69238c0,3.14746.8916,4.93067,3.46192,4.93067a10.61062,10.61062,0,0,0,2.67578-.31446l.21,3.46289a10.24565,10.24565,0,0,1-4.14453.68164,6.66432,6.66432,0,0,1-4.9834-1.9414c-1.207-1.46875-1.73145-3.67188-1.73145-6.66211V372.71643h-3.93457v-3.46191h3.93457v-6.1377Z" transform="translate(-3.93457)"/><path d="M272.66064,362.067a2.78434,2.78434,0,0,1-2.93847,2.833,2.68453,2.68453,0,0,1-2.78028-2.833,2.7695,2.7695,0,0,1,2.833-2.88477A2.84465,2.84465,0,0,1,272.66064,362.067Zm-5.19433,32.52539V369.25452h4.56445v25.33789Z" transform="translate(-3.93457)"/><path d="M297.57959,388.50745a42.54259,42.54259,0,0,0,.36719,6.085h-4.14453l-.41993-3.2002h-.10449a9.59894,9.59894,0,0,1-7.76367,3.77734c-5.08887,0-7.76465-3.67187-7.76465-7.292,0-6.13769,5.45606-9.49511,15.26563-9.39062v-.57715c0-2.09766-.62891-5.875-5.77051-5.875a12.5056,12.5056,0,0,0-6.60938,1.88867l-1.0498-3.043a15.88128,15.88128,0,0,1,8.3418-2.20312c7.76367,0,9.65234,5.29883,9.65234,10.38672Zm-4.459-6.82032c-5.03614-.15722-10.75489.73438-10.75489,5.666a4.08274,4.08274,0,0,0,4.35449,4.40625,6.38926,6.38926,0,0,0,6.19043-4.249,7.65406,7.65406,0,0,0,.21-1.46875Z" transform="translate(-3.93457)"/><path d="M305.03076,357.34631h4.56445v37.2461h-4.56445Z" transform="translate(-3.93457)"/><path d="M334.41064,383.47131l-3.62011,11.1211h-4.77344L338.08252,359.235h5.45605L355.604,394.59241h-4.8789l-3.77637-11.1211Zm11.59375-3.56738L342.5415,369.7262c-.78613-2.30762-1.31152-4.40625-1.83593-6.45215h-.15723c-.47168,2.09863-1.04883,4.249-1.73145,6.40039L335.355,379.90393Z" transform="translate(-3.93457)"/><path d="M360.48682,376.07385c0-2.623-.1045-4.77344-.209-6.81933h4.0918l.21,4.14453h.15723a9.40136,9.40136,0,0,1,8.39355-4.72168c3.46192,0,8.918,2.09863,8.918,10.7539v15.16114h-4.56445v-14.584c0-4.14453-1.52051-7.55371-5.875-7.55371a6.96582,6.96582,0,0,0-6.55762,6.87207v15.26563h-4.56445Z" transform="translate(-3.93457)"/><path d="M407.44189,388.50745a42.544,42.544,0,0,0,.36719,6.085h-4.14453l-.41992-3.2002h-.10449a9.60044,9.60044,0,0,1-7.76368,3.77734c-5.08886,0-7.76464-3.67187-7.76464-7.292,0-6.13769,5.45605-9.49511,15.26562-9.39062v-.57715c0-2.09766-.6289-5.875-5.77051-5.875a12.50557,12.50557,0,0,0-6.60937,1.88867l-1.04981-3.043a15.8813,15.8813,0,0,1,8.3418-2.20312c7.76367,0,9.65234,5.29883,9.65234,10.38672Zm-4.459-6.82032c-5.03613-.15722-10.75488.73438-10.75488,5.666a4.08274,4.08274,0,0,0,4.35449,4.40625,6.38928,6.38928,0,0,0,6.19043-4.249,7.6548,7.6548,0,0,0,.21-1.46875Z" transform="translate(-3.93457)"/><path d="M414.89307,357.34631h4.56445v37.2461h-4.56445Z" transform="translate(-3.93457)"/><path d="M428.90088,369.25452l5.56152,14.95117c.57715,1.67871,1.20606,3.67187,1.626,5.19336h.10449c.47266-1.46875.99707-3.46289,1.62695-5.2461l5.03614-14.89843h4.8789l-6.9248,18.04589c-3.30567,8.708-5.56152,13.168-8.709,15.94825a13.372,13.372,0,0,1-5.665,2.9375l-1.1543-3.88184a12.38853,12.38853,0,0,0,4.0918-2.25586,14.54089,14.54089,0,0,0,3.8291-5.1416,2.97211,2.97211,0,0,0,.36718-1.10156,3.1878,3.1878,0,0,0-.36718-1.20606l-9.33789-23.34472Z" transform="translate(-3.93457)"/><path d="M450.98877,389.87073a12.09263,12.09263,0,0,0,6.085,1.83593c3.35742,0,4.93164-1.67871,4.93164-3.77636,0-2.20313-1.31152-3.35742-4.72168-4.61719-4.56348-1.67871-6.71484-4.19629-6.71484-7.23926,0-4.03906,3.30469-7.39648,8.76074-7.39648a12.70134,12.70134,0,0,1,6.24316,1.52148l-1.15429,3.35742a10.38644,10.38644,0,0,0-5.2461-1.52148c-2.67578,0-4.19726,1.626-4.19726,3.51465,0,2.09863,1.46972,3.043,4.82715,4.35449,4.35351,1.626,6.66211,3.77734,6.66211,7.60645,0,4.459-3.4629,7.65917-9.49512,7.65917a14.46859,14.46859,0,0,1-7.13477-1.78417Z" transform="translate(-3.93457)"/><path d="M477.58838,362.067a2.78435,2.78435,0,0,1-2.93848,2.833,2.68452,2.68452,0,0,1-2.78027-2.833,2.76949,2.76949,0,0,1,2.833-2.88477A2.84466,2.84466,0,0,1,477.58838,362.067ZM472.394,394.59241V369.25452h4.56446v25.33789Z" transform="translate(-3.93457)"/><path d="M484.04248,389.87073a12.09263,12.09263,0,0,0,6.085,1.83593c3.35742,0,4.93164-1.67871,4.93164-3.77636,0-2.20313-1.31152-3.35742-4.72168-4.61719-4.56347-1.67871-6.71484-4.19629-6.71484-7.23926,0-4.03906,3.30469-7.39648,8.76074-7.39648a12.70134,12.70134,0,0,1,6.24316,1.52148l-1.15429,3.35742a10.38644,10.38644,0,0,0-5.2461-1.52148c-2.67578,0-4.19726,1.626-4.19726,3.51465,0,2.09863,1.46973,3.043,4.82715,4.35449,4.35351,1.626,6.66211,3.77734,6.66211,7.60645,0,4.459-3.46289,7.65917-9.49512,7.65917a14.46861,14.46861,0,0,1-7.13477-1.78417Z" transform="translate(-3.93457)"/><path d="M74.82373,442.93127a18.48832,18.48832,0,0,1-7.33887,1.3125c-7.749,0-13.6123-4.96093-13.6123-14.02246,0-8.65136,5.86328-14.47265,14.43262-14.47265a15.14082,15.14082,0,0,1,6.55957,1.18847l-.86036,2.91114a12.9923,12.9923,0,0,0-5.57617-1.14747c-6.47851,0-10.7832,4.14063-10.7832,11.39747,0,6.76562,3.89551,11.11132,10.61914,11.11132a14.27727,14.27727,0,0,0,5.82227-1.14843Z" transform="translate(-3.93457)"/><path d="M96.63623,433.87073c0,7.33886-5.37109,10.373-9.96289,10.373-5.207,0-9.43066-3.8955-9.43066-10.291,0-6.64258,4.51074-10.41406,9.88183-10.41406C92.65967,423.5387,96.63623,427.51526,96.63623,433.87073Zm-15.74414.082c0,3.97656,2.00879,7.585,6.02734,7.585,3.93555,0,6.06739-3.6084,6.06739-7.626,0-3.44433-1.59864-7.708-6.06739-7.708C82.49072,426.20373,80.89209,430.42639,80.89209,433.95276Z" transform="translate(-3.93457)"/><path d="M101.187,429.32c0-2.05079-.082-3.73145-.16406-5.33008h3.11621l.20508,3.15625h.082a6.82979,6.82979,0,0,1,6.27246-3.60742,5.88468,5.88468,0,0,1,5.61719,3.93554h.082a8.1945,8.1945,0,0,1,2.21387-2.583,6.83858,6.83858,0,0,1,4.38769-1.35253c2.624,0,6.51856,1.68066,6.51856,8.56835V443.7926h-3.48536V432.59924c0-3.85351-1.43457-6.14941-4.3457-6.14941a4.68612,4.68612,0,0,0-4.26367,3.23828,6.42461,6.42461,0,0,0-.32813,1.8457V443.7926h-3.48535V431.903c0-3.15722-1.43457-5.45312-4.14062-5.45312a5.02569,5.02569,0,0,0-4.51074,3.60742,6.31628,6.31628,0,0,0-.24512,1.76367V443.7926H101.187Z" transform="translate(-3.93457)"/><path d="M135.38135,429.32c0-2.05079-.082-3.73145-.16406-5.33008h3.11621l.20507,3.15625h.082a6.83091,6.83091,0,0,1,6.27246-3.60742,5.88467,5.88467,0,0,1,5.61718,3.93554h.082a8.19461,8.19461,0,0,1,2.21386-2.583,6.83861,6.83861,0,0,1,4.3877-1.35253c2.624,0,6.51855,1.68066,6.51855,8.56835V443.7926h-3.48535V432.59924c0-3.85351-1.43457-6.14941-4.3457-6.14941a4.6861,4.6861,0,0,0-4.26367,3.23828,6.42427,6.42427,0,0,0-.32813,1.8457V443.7926H147.8042V431.903c0-3.15722-1.43457-5.45312-4.14063-5.45312a5.0257,5.0257,0,0,0-4.51074,3.60742,6.31665,6.31665,0,0,0-.24512,1.76367V443.7926h-3.52636Z" transform="translate(-3.93457)"/><path d="M183.146,443.7926l-.20508-3.23926h-.082a7.43136,7.43136,0,0,1-6.60157,3.69043c-3.85351,0-6.80566-2.33691-6.80566-8.69238V423.98987h3.6084v10.94629c0,3.85449,1.22949,6.35547,4.3457,6.35547a5.15073,5.15073,0,0,0,4.83789-3.28028,5.88029,5.88029,0,0,0,.32813-1.88574V423.98987h3.56738v14.39062c0,2.09082.082,3.81348.16309,5.41211Z" transform="translate(-3.93457)"/><path d="M192.12451,429.32c0-2.05079-.082-3.73145-.16406-5.33008h3.19824l.16406,3.23828h.123a7.34752,7.34752,0,0,1,6.55957-3.68945c2.70606,0,6.96973,1.63964,6.96973,8.40527V443.7926h-3.56641V432.39416c0-3.23828-1.18945-5.90332-4.5918-5.90332a5.44082,5.44082,0,0,0-5.125,5.3711V443.7926h-3.56738Z" transform="translate(-3.93457)"/><path d="M218.938,418.37268a2.17575,2.17575,0,0,1-2.2959,2.21387,2.09822,2.09822,0,0,1-2.17285-2.21387,2.164,2.164,0,0,1,2.21387-2.25488A2.22224,2.22224,0,0,1,218.938,418.37268Zm-4.0586,25.41992V423.98987h3.56641V443.7926Z" transform="translate(-3.93457)"/><path d="M228.81885,418.24963v5.74024h5.166v2.70605h-5.166v10.7002c0,2.46093.69726,3.85449,2.70605,3.85449a8.27173,8.27173,0,0,0,2.09082-.24609l.16407,2.70605a7.986,7.986,0,0,1-3.23829.5332,5.21032,5.21032,0,0,1-3.8955-1.51757c-.94336-1.14747-1.35254-2.86915-1.35254-5.207V426.69592h-3.0752v-2.70605h3.0752V419.192Z" transform="translate(-3.93457)"/><path d="M239.72412,423.98987l4.34668,11.68457c.45117,1.3125.94238,2.87011,1.27051,4.05957h.082c.36914-1.14844.7793-2.70606,1.27148-4.10059l3.93555-11.64355h3.81348l-5.41211,14.10351c-2.583,6.80664-4.34668,10.291-6.80664,12.46387a10.44319,10.44319,0,0,1-4.42774,2.29688L236.895,449.82a9.67491,9.67491,0,0,0,3.19824-1.76368,11.35719,11.35719,0,0,0,2.99317-4.01757,2.33108,2.33108,0,0,0,.28711-.86133,2.48935,2.48935,0,0,0-.28711-.94239l-7.29786-18.24511Z" transform="translate(-3.93457)"/><path d="M284.41357,433.87073c0,7.33886-5.37109,10.373-9.96289,10.373-5.207,0-9.43066-3.8955-9.43066-10.291,0-6.64258,4.51074-10.41406,9.88184-10.41406C280.437,423.5387,284.41357,427.51526,284.41357,433.87073Zm-15.74414.082c0,3.97656,2.00879,7.585,6.02735,7.585,3.93554,0,6.06738-3.6084,6.06738-7.626,0-3.44433-1.59863-7.708-6.06738-7.708C270.26807,426.20373,268.66943,430.42639,268.66943,433.95276Z" transform="translate(-3.93457)"/><path d="M289.3335,443.7926V426.69592h-2.78809v-2.70605h2.78809v-.98438c0-2.78808.61425-5.33008,2.29589-6.92871a6.874,6.874,0,0,1,4.79688-1.8457,7.2911,7.2911,0,0,1,3.11621.61523l-.61523,2.74707a5.20228,5.20228,0,0,0-2.21387-.49218c-3.03418,0-3.81348,2.70605-3.81348,5.78125v1.10742h4.79785v2.70605H292.8999V443.7926Z" transform="translate(-3.93457)"/><path d="M309.75146,416.486a42.40391,42.40391,0,0,1,6.8877-.53223c3.52637,0,6.10938.81934,7.749,2.2959a7.59375,7.59375,0,0,1,2.41895,5.82227,8.16482,8.16482,0,0,1-2.13184,5.94433c-1.88574,2.00879-4.96093,3.03418-8.36425,3.03418a19.14955,19.14955,0,0,1-2.95215-.20507V443.7926h-3.60743Zm3.60743,13.44824a13.36451,13.36451,0,0,0,2.95215.2461c4.30566,0,6.92968-2.13184,6.92968-5.9043,0-3.73047-2.583-5.49316-6.51953-5.49316a18.63435,18.63435,0,0,0-3.3623.24511Z" transform="translate(-3.93457)"/><path d="M330.82568,430.13928c0-2.33691-.082-4.30469-.16406-6.14941h3.15723l.123,3.89453h.123a6.07912,6.07912,0,0,1,5.53516-4.3457,3.523,3.523,0,0,1,.9834.082v3.40234A4.81042,4.81042,0,0,0,339.395,426.9c-2.583,0-4.34668,1.92774-4.83887,4.63379a7.17154,7.17154,0,0,0-.16308,1.63965V443.7926h-3.56739Z" transform="translate(-3.93457)"/><path d="M357.96826,439.03674a33.433,33.433,0,0,0,.28613,4.75586h-3.23828l-.32812-2.501h-.082a7.50564,7.50564,0,0,1-6.06836,2.95214,5.70075,5.70075,0,0,1-6.06836-5.69922c0-4.79687,4.26465-7.42089,11.93164-7.33886v-.45117c0-1.63965-.49219-4.5918-4.50977-4.5918a9.77093,9.77093,0,0,0-5.166,1.47558l-.82031-2.37792a12.40716,12.40716,0,0,1,6.51855-1.72168c6.06836,0,7.54492,4.14062,7.54492,8.11816Zm-3.48535-5.33008c-3.93652-.123-8.40527.57422-8.40527,4.42774a3.19138,3.19138,0,0,0,3.40332,3.44433,4.99357,4.99357,0,0,0,4.83789-3.32128,5.958,5.958,0,0,0,.16406-1.14747Z" transform="translate(-3.93457)"/><path d="M377.93408,443.05432a13.15054,13.15054,0,0,1-5.69824,1.18945c-5.98633,0-9.88184-4.05957-9.88184-10.12695,0-6.10937,4.18262-10.57812,10.66016-10.57812a12.22788,12.22788,0,0,1,5.002,1.02441l-.81933,2.78809a8.36715,8.36715,0,0,0-4.18262-.94239c-4.55078,0-7.01074,3.40235-7.01074,7.50293,0,4.5918,2.95215,7.4209,6.92871,7.4209a10.195,10.195,0,0,0,4.38769-.98437Z" transform="translate(-3.93457)"/><path d="M387.03564,418.24963v5.74024h5.166v2.70605h-5.166v10.7002c0,2.46093.69727,3.85449,2.70606,3.85449a8.27173,8.27173,0,0,0,2.09082-.24609l.16406,2.70605a7.9859,7.9859,0,0,1-3.23828.5332,5.21036,5.21036,0,0,1-3.89551-1.51757c-.94336-1.14747-1.35254-2.86915-1.35254-5.207V426.69592h-3.07519v-2.70605h3.07519V419.192Z" transform="translate(-3.93457)"/><path d="M400.31885,418.37268a2.17575,2.17575,0,0,1-2.2959,2.21387,2.09822,2.09822,0,0,1-2.17285-2.21387,2.164,2.164,0,0,1,2.21386-2.25488A2.22225,2.22225,0,0,1,400.31885,418.37268Zm-4.0586,25.41992V423.98987h3.56641V443.7926Z" transform="translate(-3.93457)"/><path d="M419.99854,443.05432a13.15063,13.15063,0,0,1-5.69825,1.18945c-5.98633,0-9.88183-4.05957-9.88183-10.12695,0-6.10937,4.18261-10.57812,10.66015-10.57812a12.22794,12.22794,0,0,1,5.002,1.02441l-.81934,2.78809a8.36715,8.36715,0,0,0-4.18262-.94239c-4.55078,0-7.01074,3.40235-7.01074,7.50293,0,4.5918,2.95215,7.4209,6.92871,7.4209a10.195,10.195,0,0,0,4.3877-.98437Z" transform="translate(-3.93457)"/><path d="M426.02686,434.527c.082,4.8789,3.15722,6.88769,6.80566,6.88769a12.89767,12.89767,0,0,0,5.49414-1.02539l.61523,2.583a15.77048,15.77048,0,0,1-6.60058,1.27148c-6.10938,0-9.75879-4.05957-9.75879-10.0039,0-6.02735,3.52637-10.70117,9.34863-10.70117,6.43653,0,8.15918,5.6582,8.15918,9.30664a7.91681,7.91681,0,0,1-.16406,1.68164Zm10.57812-2.583c.041-2.25586-.94336-5.82227-5.002-5.82227-3.64942,0-5.248,3.32032-5.53516,5.82227Z" transform="translate(-3.93457)"/><path class="cls-1" d="M249.97574,2.40326a110.80892,110.80892,0,0,0-110.8088,110.80905c0,86.5323,110.8088,236.3847,110.8088,236.3847s110.80879-153.40769,110.80879-236.3847A110.80892,110.80892,0,0,0,249.97574,2.40326Zm0,184.23464a73.42572,73.42572,0,1,1,73.42558-73.42559A73.42561,73.42561,0,0,1,249.97574,186.6379Z" transform="translate(-3.93457)"/><path class="cls-2" d="M249.97607,352a2.40256,2.40256,0,0,1-1.93262-.97492c-4.54362-6.1437-111.27988-151.48153-111.27988-237.81259a113.2125,113.2125,0,0,1,226.425,0c0,82.80227-106.72061,231.50145-111.26422,237.79068a2.40269,2.40269,0,0,1-1.935.99683Zm0-347.1927a108.52759,108.52759,0,0,0-108.4052,108.40519c0,78.44722,93.57331,211.67291,108.38329,232.262,14.71844-20.90831,108.4271-157.01337,108.4271-232.262A108.52759,108.52759,0,0,0,249.97607,4.8073Zm0,184.23437a75.82918,75.82918,0,1,1,75.82918-75.82918A75.91511,75.91511,0,0,1,249.97607,189.04167Zm0-146.85106A71.02189,71.02189,0,1,0,320.998,113.21249,71.10256,71.10256,0,0,0,249.97607,42.19061Z" transform="translate(-3.93457)"/><g id="layer2"><path id="path6-1" class="cls-3" d="M240.05635,161.18519c-5.55048-.48932-6.64256-2.20152-9.298-1.68981-5.69184,1.11416-8.11522.4033-8.11522.4033,5.92018-3.70437,10.99189-2.01424,12.42787-9.843-.24977,7.06322,7.32891,11.33611,4.98537,11.12951" transform="translate(-3.93457)"/><path id="path6" class="cls-3" d="M245.8793,160.81636c1.18977-7.09857,2.72386-14.45613,6.1881-16.798.00433.27377,1.12282.57819.93627.74319-2.49137,2.20368,3.37586,5.01553,4.654,10.00636C249.87017,148.89643,248.58429,156.58383,245.8793,160.81636Z" transform="translate(-3.93457)"/><path id="path12-2" class="cls-3" d="M260.55255,136.77915c-3.2236,1.59486-10.359,8.25336-9.924,9.13261s6.32221-2.66,9.54581-4.25491,1.91991-5.64046.37819-4.8777" transform="translate(-3.93457)"/><path id="path12-2-1" class="cls-3" d="M237.25022,145.16014c-1.52371,2.6775-4.0015,8.97312-3.2712,9.38872s4.16709-3.67488,5.69079-6.35238-1.69086-4.31689-2.41959-3.03634" transform="translate(-3.93457)"/><path id="path12-7" class="cls-4" d="M233.96216,122.96281c3.12521,7.25287,7.6583,23.99417,5.68,24.84658s-8.859-8.895-11.98422-16.14788,4.8095-12.16747,6.30417-8.6987" transform="translate(-3.93457)"/><path id="path12" class="cls-4" d="M241.51576,126.14937c7.14932,2.30145,21.68085,8.2521,20.63663,12.80511-.45794,1.99672-11.20414-.54546-18.35347-2.84692s-5.70241-11.0589-2.28316-9.95819" transform="translate(-3.93457)"/><path id="path10" class="cls-4" d="M225.13328,136.98017c-7.18855,0-16.0602-2.66532-19.08129-13.87-1.79307-6.65015-5.42743-15.43632,1.517-24.39642,2.642-3.43,4.24825-.00962,6.14562,1.76972,2.566,2.40641,5.87222-.5077,16.10085-.5077,11.45508-.14939,48.68955-1.552,48.68955,19.1397C278.92153,138.72067,236.58836,136.98018,225.13328,136.98017Z" transform="translate(-3.93457)"/><path id="path24" class="cls-5" d="M213.55048,100.26106c-2.72695-2.20262-.46986-7.49587,1.19943-12.76086,1.51649-4.783-.06357-11.06735-2.96078-12.99293a9.44116,9.44116,0,0,0-8.3336-1.12068,10.14573,10.14573,0,0,0-4.31559,3.23253,3.22161,3.22161,0,0,0-.27121,4.12892,11.2526,11.2526,0,0,0,3.62011.8505c5.2869.42723,6.08838,1.68817,4.94153,5.85016-1.85151,6.67978-1.56379,7.89889-2.05107,9.58594-1.6113,5.57861-2.97158,14.48757-1.45476,14.834,2.13611-.279,4.9261-6.811,6.79231-8.97793C212.72635,100.55749,212.50222,100.33228,213.55048,100.26106Z" transform="translate(-3.93457)"/><path id="rect4521-3" class="cls-6" d="M285.02966,80.78484c-6.42272,6.35306-11.39966,15.93546-14.495,23.82946-4.86838,12.70955-3.83258,18.59215,6.19524,21.10044a99.27107,99.27107,0,0,0,25.02236,1.80118c.68894-.78391,1.62168-1.62552-.45057-2.47977,5.48387,1.00829,6.68694-1.38776,7.98013-3.25748,1.02291-1.47894,3.90909-3.47168-.11905-4.03632,5.82939.5935,4.06773-1.61635,4.32939-4.16875.21268-2.07472,1.78329-4.81491-1.839-4.51577,3.70171.056,2.203-3.16264,2.03877-4.87427-.24372-2.54049-.78172-3.98274-4.52323-3.32974,4.805-.38227,3.63059-3.32368,2.61024-5.45555-1.128-2.35677-1.66628-5.19766-6.84047-1.893,7.14337-3.13768,3.55529-6.15406,1.73422-8.3898-1.67428-2.05553-2.37327-4.4821-7.31262.308,4.01091-4.09174.18282-5.23967-2.876-6.68892-3.85092-1.82454-8.04861-2.9612-11.4544,2.05027Z" transform="translate(-3.93457)"/><path id="rect4521-3-3" class="cls-4" d="M290.65674,78.3368c-1.62435.09483-3.12767.80025-4.68509,3.09193a1.1394,1.1394,0,0,1-.14153.17058c-6.22428,6.15678-11.17489,15.63356-14.23307,23.43268-2.40086,6.2699-3.23286,10.74041-2.4496,13.66331.78363,2.92429,3.03779,4.7063,7.85686,5.9117a100.21808,100.21808,0,0,0,24.21293,1.78186c.0154-.02022.04769-.05821.05808-.06894-1.57145-1.38221-1.15822-1.51513-11.03677-2.406,2.56926.4724,15.15824.135,16.0267-.3992a7.67942,7.67942,0,0,0,2.07581-2.38427,14.55178,14.55178,0,0,1,1.056-1.2738,5.5051,5.5051,0,0,0,.54436-.72944c-2.46451-.55232-2.54758-.16713-10.21569-.64787a117.97036,117.97036,0,0,0,12.25884-1.88879c.42929-.10647.34092-.10888.37016-.18145a3.33524,3.33524,0,0,0,.02914-.94717,11.12283,11.12283,0,0,1-.02914-2.00323c.13029-1.27073.53333-2.493.51532-2.99032-.00867-.24864.00235-.17089-.01805-.18508-1.41073-.30595-.86379-.4997-7.12632-.1584,5.92752-1.067,7.00169-2.3582,7.09365-2.43636s.14221-.163.16328-.48266c.04223-.63925-.321-1.79665-.42822-2.91411a3.87938,3.87938,0,0,0-.59516-2.14113c-2.24784-.44756-1.78874-1.42814-7.16876.56633a64.40477,64.40477,0,0,0,6.32682-3.52763.73955.73955,0,0,0,.41371-.5988,6.20827,6.20827,0,0,0-.78387-2.7,8.5797,8.5797,0,0,0-1.4879-2.602,1.16472,1.16472,0,0,0-1.00162-.09434c-2.32585.94515-4.65668,1.20479-6.3341,2.06863,1.69193-.74317,5.21511-4.25958,5.68088-4.81218a1.3977,1.3977,0,0,0,.43548-1.29557c-.13664-.84118-1.27-2.10937-2.25363-3.31694-.46346-.569-.82385-1.10894-1.13589-1.47339a1.58752,1.58752,0,0,0-.704-.55887c-.16973-.04487-.4352-.05856-1.06331.27217-2.56838,1.92628.45845-.57-6.76846,4.34584a40.61881,40.61881,0,0,0,3.80354-5.81559.69217.69217,0,0,0-.2141-.77662,15.28806,15.28806,0,0,0-3.70881-2.06495,11.65257,11.65257,0,0,0-5.33831-1.42984Z" transform="translate(-3.93457)"/><path id="rect4521-3-4" class="cls-6" d="M217.77178,102.03678c-7.24933,8.015-.25438,25.75487,8.96752,29.96922,9.39783,4.29475,9.78747-.64679,26.10368,2.85234,18.30992,3.92669,20.87881-3.39567,22.06738-3.46868a2.43756,2.43756,0,0,0,2.3879-2.38428v-.51169a2.376,2.376,0,0,0,2.35887-2.38064v-1.83267h.69315a2.38467,2.38467,0,0,0,2.38791-2.3879v-2.36976a2.37174,2.37174,0,0,0,1.74556-2.2863v-1.66573c.92243-.4396,1.10423-1.32047,1.03989-2.412l-.17959-3.04671c1.22577-.16013.79089-1.83956.459-3.295-.468-2.05231-.77337-1.84235-2.36559-1.96785a11.53076,11.53076,0,0,1-2.32494-.537c-9.07264-4.27873-29.08151-6.12786-36.99317-6.9321-4.10994-.35655-9.14718.04872-12.62285.08823C225.29609,97.53876,217.77178,100.43542,217.77178,102.03678Z" transform="translate(-3.93457)"/><path id="path4519" class="cls-7" d="M203.392,100.92117c-1.08106,2.09783-1.072,15.01849-.44983,18.10125s1.69037,7.55493,4.43094,4.15428-.013-16.46823,6.6597-22.74678c.46857-.217-.47862-1.13526-.718-1.27567-1.17276-.68793-4.48963,4.28472-7.837,8.94413s-.67227-7.96938-.68944-8.824a3.44448,3.44448,0,0,0-1.39635,1.64682Z" transform="translate(-3.93457)"/><path id="path22" class="cls-8" d="M199.13994,76.61912c-3.83441,2.37278-5.72527,3.80826-5.24361,7.37383a4.1071,4.1071,0,0,1,.251-.63c.51795.08056,3.71133-1.19895,4.51154-1.33713a24.713,24.713,0,0,1,3.29791-.45178c.90126-.06461-3.45965-.60714-2.42092-.78065.43172-.07212,1.83686-.456,1.48943-.73616a4.74477,4.74477,0,0,0-2.29952-.47409C197.69554,79.723,199.17725,76.69271,199.13994,76.61912Z" transform="translate(-3.93457)"/><path id="rect4521-3-4-8" class="cls-4" d="M243.9841,98.9328c-3.90008-.33834-8.8909.05134-12.47012.092a29.1114,29.1114,0,0,0-8.68767,1.62433,16.1754,16.1754,0,0,0-2.95877,1.32984,3.388,3.388,0,0,0-.589.44635,1.5552,1.5552,0,0,1-.34971.658c-3.07506,3.39985-3.26021,9.23841-1.37585,14.87211s5.83284,10.80962,9.82884,12.63577c4.48646,2.05029,6.38865,1.84776,9.6908,1.58752a49.16777,49.16777,0,0,1,16.09611,1.15958c8.94669,1.91868,13.79752,1.04719,16.50564-.138a9.76248,9.76248,0,0,0,2.81153-1.83141c.311-.28451.56085-.54089.84208-.79606a1.97681,1.97681,0,0,1,1.48629-.73164c.59721-.03669.9295-.35634.9295-.83748V128.493a1.55524,1.55524,0,0,1,1.53691-1.55532.78687.78687,0,0,0,.81907-.82367v-1.8314a1.55524,1.55524,0,0,1,1.55514-1.55532h.695a.80362.80362,0,0,0,.83288-.83287V119.5246a1.55522,1.55522,0,0,1,1.13657-1.5001.79322.79322,0,0,0,.6074-.78686v-1.66575a1.55523,1.55523,0,0,1,.8881-1.40346c.13323-.0635.06691-.00424.10123-.09664a2.47,2.47,0,0,0,.05523-.81907l-.17946-3.05081a1.55521,1.55521,0,0,1,.77766-1.44488,12.3574,12.3574,0,0,0-.2807-1.59672,5.47008,5.47008,0,0,0-.21628-.75005c.1104.09182-.0015.05051-.75925-.00919a12.10215,12.10215,0,0,1-2.66888-.6074,1.556,1.556,0,0,1-.19326-.07362c-4.21543-1.988-11.43916-3.55014-18.50731-4.63833C254.88481,99.99493,247.95457,99.3363,243.9841,98.9328Z" transform="translate(-3.93457)"/><path id="path5362-9-7" class="cls-9" d="M204.70347,77.61083a1.6421,1.6421,0,0,0-2.06694-1.70122,1.86548,1.86548,0,0,0-1.22026,2.18284A1.84271,1.84271,0,0,0,204.70347,77.61083Z" transform="translate(-3.93457)"/><path id="rect4521-3-4-2-7" class="cls-4" d="M226.82039,102.69159c-7.37766.50683-7.74764,5.20977-7.51586,10.24558.29809,6.47668,6.7358,14.97329,10.71152,15.35595,5.29194.50935,13.712-4.575,14.46845-12.237C245.07888,110.03605,237.02664,102.69158,226.82039,102.69159Z" transform="translate(-3.93457)"/></g></g></g></g></svg>