<?xml version="1.0" standalone="no"?>
<!DOCTYPE svg PUBLIC "-//W3C//DTD SVG 20010904//EN"
 "http://www.w3.org/TR/2001/REC-SVG-20010904/DTD/svg10.dtd">
<svg version="1.0" xmlns="http://www.w3.org/2000/svg"
 width="1088.000000pt" height="1088.000000pt" viewBox="0 0 1088.000000 1088.000000"
 preserveAspectRatio="xMidYMid meet">
<metadata>
Created by potrace 1.14, written by Peter Selinger 2001-2017
</metadata>
<g transform="translate(0.000000,1088.000000) scale(0.100000,-0.100000)"
fill="#000000" stroke="none">
<path d="M5218 10875 c-2 -1 -41 -6 -88 -9 -47 -4 -98 -9 -115 -12 -16 -2 -48
-7 -70 -9 -46 -6 -56 -8 -145 -24 -36 -7 -72 -15 -80 -18 -8 -3 -28 -6 -45 -7
-16 -1 -34 -4 -40 -8 -10 -6 -73 -21 -77 -18 -2 1 -16 -4 -33 -10 -24 -10
-139 -44 -180 -54 -5 -2 -23 -8 -39 -15 -16 -6 -36 -13 -45 -15 -9 -2 -32 -10
-51 -18 -50 -21 -74 -31 -85 -33 -12 -3 -133 -59 -198 -91 -27 -13 -55 -24
-63 -24 -8 0 -14 -3 -14 -8 0 -4 -21 -17 -47 -30 -27 -13 -66 -34 -88 -48 -22
-13 -49 -29 -60 -35 -54 -27 -280 -179 -313 -209 -11 -11 -25 -20 -31 -20 -5
0 -11 -3 -13 -8 -1 -4 -23 -23 -48 -42 -25 -19 -50 -39 -56 -45 -6 -5 -37 -32
-69 -60 -76 -66 -236 -226 -305 -305 -87 -100 -99 -114 -107 -125 -5 -5 -31
-39 -58 -75 -28 -36 -84 -117 -126 -180 -95 -145 -106 -163 -107 -174 0 -5 -4
-12 -9 -15 -14 -10 -126 -226 -170 -326 -47 -110 -84 -200 -87 -214 -1 -9 -10
-33 -19 -54 -9 -21 -21 -56 -27 -77 -6 -21 -19 -67 -30 -101 -11 -34 -22 -72
-25 -83 -2 -12 -6 -30 -9 -41 -23 -99 -28 -123 -32 -140 -2 -11 -6 -31 -9 -45
-4 -14 -7 -34 -9 -45 -4 -29 -17 -106 -23 -140 -3 -16 -7 -46 -8 -65 -2 -19
-7 -66 -11 -105 -16 -151 -9 -589 11 -735 2 -19 7 -55 10 -80 3 -25 7 -54 9
-65 2 -11 7 -40 10 -65 6 -48 9 -65 26 -145 6 -27 13 -66 16 -85 3 -19 7 -44
8 -55 6 -31 106 -428 113 -445 3 -8 7 -19 8 -25 2 -5 10 -36 20 -67 9 -32 16
-60 16 -63 -1 -3 5 -22 13 -42 8 -21 33 -96 56 -168 23 -71 48 -144 56 -162 8
-17 14 -35 14 -39 0 -5 12 -40 26 -79 45 -122 106 -279 119 -310 7 -16 32 -77
55 -135 51 -128 92 -225 131 -308 16 -35 29 -65 29 -67 0 -2 20 -48 45 -101
25 -53 45 -97 45 -99 0 -28 417 -855 593 -1175 44 -80 95 -174 115 -210 19
-36 38 -69 42 -75 4 -5 21 -35 37 -65 17 -30 53 -94 81 -142 29 -48 52 -91 52
-97 0 -5 4 -11 8 -13 4 -1 25 -34 47 -73 21 -38 41 -72 44 -75 6 -5 35 -57 55
-97 6 -13 14 -23 19 -23 4 0 7 -4 7 -9 0 -5 45 -83 100 -173 55 -90 105 -174
111 -188 6 -13 14 -27 18 -30 6 -4 71 -106 124 -195 7 -11 29 -45 50 -77 20
-31 37 -61 37 -66 0 -5 9 -17 20 -27 11 -10 20 -24 20 -32 0 -7 5 -13 10 -13
6 0 10 -4 10 -9 0 -5 18 -37 40 -70 22 -33 40 -64 40 -70 0 -5 4 -11 8 -13 7
-3 138 -195 152 -223 14 -28 105 -160 112 -163 4 -2 8 -9 8 -16 0 -7 9 -21 20
-31 11 -10 20 -22 20 -26 0 -4 52 -83 116 -176 63 -92 128 -186 142 -208 15
-22 29 -42 32 -45 9 -8 100 -141 100 -145 0 -3 7 -13 16 -22 9 -10 56 -74 105
-143 84 -118 104 -136 150 -139 19 -1 79 56 79 75 0 6 7 14 15 18 8 3 15 12
15 20 0 8 4 16 8 18 5 1 28 32 52 68 24 36 47 67 52 68 4 2 8 10 8 17 0 7 3
15 8 17 4 2 30 37 57 78 101 150 160 235 172 248 6 6 15 21 18 32 3 11 10 20
13 20 4 0 18 20 32 45 14 25 28 45 32 45 5 0 8 7 8 15 0 8 5 15 10 15 6 0 10
7 10 15 0 8 5 15 10 15 6 0 10 4 10 8 0 9 139 224 170 262 11 14 20 28 20 33
0 4 16 30 35 57 19 27 35 52 35 55 0 9 44 69 53 73 4 2 7 8 7 12 0 11 123 204
132 208 5 2 8 7 8 12 0 5 38 70 85 145 47 75 85 140 85 145 0 4 3 10 8 12 4 2
43 62 86 133 120 197 143 236 168 283 12 23 26 42 30 42 4 0 8 5 8 10 0 10 89
170 100 180 3 3 17 26 30 53 14 26 29 47 33 47 5 0 6 4 3 9 -3 5 1 14 9 21 8
7 15 16 15 21 0 5 17 38 39 73 21 35 44 77 52 95 8 17 17 31 21 31 5 0 8 5 8
10 0 6 21 48 47 93 25 45 59 105 74 132 15 28 38 70 52 95 27 49 115 216 168
320 19 36 39 68 44 72 6 4 6 8 2 8 -5 0 0 12 11 27 25 36 308 612 390 793 16
36 41 90 55 120 29 65 64 143 82 185 7 17 23 53 36 80 12 28 24 53 25 58 1 4
3 9 4 12 1 3 3 8 4 13 1 4 11 28 23 54 12 25 24 57 28 70 4 12 11 28 15 33 5
8 42 99 46 115 0 3 6 19 13 35 23 56 123 320 125 330 1 6 5 16 9 22 5 7 10 21
12 30 2 10 15 50 28 88 14 39 44 131 67 205 23 74 44 142 47 150 3 8 8 24 10
35 2 11 13 52 25 90 12 39 23 77 24 85 4 26 13 61 28 114 14 47 19 70 32 136
2 14 11 55 19 92 8 36 17 83 20 105 4 21 8 45 10 53 3 8 7 33 10 55 3 22 8 51
10 65 3 14 7 47 11 75 3 27 8 61 9 75 15 112 20 226 19 415 -1 233 -9 366 -29
480 -3 17 -8 48 -10 70 -3 22 -9 58 -15 80 -7 32 -34 154 -46 210 -9 43 -79
275 -94 310 -4 11 -27 70 -50 130 -45 117 -209 455 -221 455 -3 0 -9 8 -12 19
-8 30 -189 299 -272 401 -166 207 -383 427 -540 547 -27 21 -63 50 -80 66 -16
15 -38 30 -47 33 -10 3 -18 10 -18 15 0 5 -5 9 -10 9 -6 0 -16 4 -23 10 -54
44 -76 60 -82 60 -3 0 -21 11 -39 25 -18 14 -38 25 -44 25 -6 0 -12 4 -14 8
-4 10 -162 102 -176 102 -5 0 -12 4 -14 8 -3 7 -111 62 -248 125 -91 42 -331
132 -382 143 -5 1 -9 2 -10 4 -2 1 -10 3 -18 5 -8 2 -55 15 -105 28 -106 28
-175 44 -230 53 -22 4 -49 8 -60 11 -11 2 -36 6 -55 9 -19 2 -46 7 -60 9 -14
3 -47 7 -75 10 -27 3 -66 8 -85 11 -38 5 -546 14 -552 9z m482 -1315 c52 -7
104 -14 115 -16 11 -2 32 -6 47 -9 333 -61 711 -241 984 -469 39 -31 235 -226
264 -261 189 -228 328 -476 416 -742 13 -39 25 -79 27 -90 2 -10 7 -25 10 -33
5 -14 19 -73 33 -140 2 -14 7 -45 10 -70 3 -25 8 -52 10 -60 26 -79 20 -512
-9 -650 -3 -14 -10 -47 -16 -75 -10 -50 -16 -74 -27 -117 -3 -13 -7 -30 -9
-38 -2 -8 -4 -15 -5 -15 -1 0 -3 -7 -5 -15 -5 -25 -46 -143 -61 -177 -8 -17
-14 -34 -14 -38 0 -15 -104 -221 -149 -295 -39 -66 -136 -206 -151 -220 -3 -3
-23 -27 -45 -55 -73 -92 -303 -313 -353 -339 -9 -4 -21 -14 -27 -20 -11 -12
-156 -111 -165 -111 -3 -1 -21 -11 -40 -23 -90 -56 -277 -141 -400 -181 -262
-84 -447 -114 -700 -113 -131 1 -233 6 -276 16 -12 2 -45 7 -74 11 -29 4 -61
9 -72 11 -10 2 -27 6 -39 9 -11 2 -28 6 -37 9 -9 3 -30 7 -45 10 -38 7 -127
34 -149 47 -10 5 -25 9 -33 9 -9 0 -30 7 -46 16 -17 8 -39 17 -49 19 -28 5
-228 105 -310 154 -76 45 -221 148 -281 199 -88 74 -289 283 -289 300 0 5 -6
12 -14 15 -20 8 -175 245 -233 357 -100 192 -176 411 -207 590 -2 14 -7 36
-10 50 -39 156 -39 557 -1 732 4 15 8 39 10 55 14 104 102 383 148 471 10 17
14 32 11 32 -4 0 0 8 8 18 9 9 19 28 23 42 4 14 10 27 14 30 3 3 21 34 40 70
19 36 38 67 41 70 4 3 14 19 23 35 14 27 113 165 162 225 11 13 70 74 130 135
114 116 204 191 315 266 36 24 67 46 70 49 10 11 109 64 225 119 136 66 308
128 437 157 10 2 28 6 41 9 37 9 49 11 162 30 17 3 68 8 115 11 47 4 86 7 87
8 8 7 285 -4 363 -14z"/>
<path d="M4030 8620 c-46 -13 -105 -48 -146 -86 -46 -43 -52 -48 -106 -84 -21
-14 -38 -31 -38 -37 0 -7 -4 -13 -9 -13 -5 0 -13 -15 -17 -32 -17 -71 -12 -74
72 -45 74 26 92 29 169 31 73 3 145 -15 165 -39 20 -24 19 -80 -1 -157 -10
-40 -21 -84 -24 -98 -3 -14 -7 -36 -10 -50 -5 -23 -12 -61 -20 -115 -2 -11 -4
-21 -5 -22 -3 -4 -7 -21 -9 -37 0 -7 -12 -25 -26 -40 -14 -15 -25 -30 -26 -34
0 -4 -2 -16 -4 -27 -25 -158 -26 -459 -2 -565 21 -91 53 -145 81 -134 7 3 18
-8 25 -23 51 -108 84 -157 141 -212 67 -64 161 -119 220 -128 13 -3 27 -7 30
-11 8 -11 33 -13 193 -15 l147 -2 53 -81 c50 -77 106 -153 134 -182 16 -17 16
-16 -5 -60 -10 -20 -29 -66 -41 -102 -44 -125 -71 -158 -151 -185 -3 -1 -18
-7 -35 -14 -16 -6 -43 -17 -60 -23 -60 -22 -115 -50 -115 -59 0 -8 40 -7 255
5 40 3 78 -2 115 -15 30 -10 82 -21 115 -25 l60 -7 -45 54 c-49 58 -74 95
-101 147 -17 32 -17 33 7 57 13 13 24 29 24 35 0 5 4 10 9 10 9 0 42 47 72
104 19 35 17 111 -5 206 -5 23 -10 46 -22 113 -5 27 -4 27 48 28 29 0 78 2
108 3 34 1 88 -7 140 -22 96 -27 112 -31 155 -38 17 -3 48 -10 69 -15 l39 -11
-26 -17 c-52 -34 -175 -172 -207 -233 -19 -35 -33 -64 -32 -65 1 -2 0 -8 -3
-15 -9 -28 -45 -177 -51 -213 -5 -35 -9 -54 -14 -80 -8 -35 5 -19 41 52 22 44
52 95 67 112 34 40 96 63 131 49 56 -22 77 -33 94 -47 43 -36 1 56 -64 140
-23 30 -45 56 -48 59 -3 3 -11 15 -18 26 -17 32 -5 43 135 115 68 35 130 75
138 87 23 36 26 70 9 104 -8 17 -15 32 -15 33 0 1 30 2 68 3 72 2 83 3 152 22
59 16 96 35 146 76 23 18 57 41 77 50 24 12 40 28 47 48 5 17 24 39 40 48 17
9 30 24 30 33 0 22 3 22 170 0 130 -17 462 -25 511 -12 28 7 48 39 30 45 -25
8 -8 20 25 17 64 -6 150 39 179 94 7 14 25 39 39 54 25 26 38 85 16 72 -5 -3
-10 -1 -10 4 0 6 13 11 28 11 49 0 65 20 68 86 1 32 5 83 8 111 4 43 2 55 -12
63 -13 7 -14 12 -5 18 24 15 29 53 17 123 -16 95 -37 125 -84 120 -8 -1 -3 6
12 16 46 29 47 71 1 172 -31 69 -47 84 -89 84 l-35 0 24 26 c43 48 35 87 -33
172 -50 62 -88 98 -103 95 -33 -6 -64 -20 -86 -40 -23 -20 -24 -20 -17 -1 18
47 17 68 -6 92 -25 27 -78 58 -78 46 0 -5 -4 -3 -8 3 -22 32 -227 86 -248 65
-5 -6 -9 -7 -35 -10 -16 -2 -128 -118 -184 -191 -28 -36 -55 -69 -61 -75 -9
-8 -64 -87 -99 -143 -46 -73 -79 -132 -121 -220 -53 -111 -47 -107 -119 -89
-11 3 -63 12 -115 21 -52 9 -104 18 -115 20 -11 2 -58 8 -105 14 -47 7 -105
14 -130 18 -25 3 -58 7 -75 9 -16 1 -66 6 -110 11 -44 4 -92 8 -107 9 -16 0
-28 2 -28 5 0 7 -281 4 -407 -4 -135 -8 -270 -43 -358 -91 -81 -45 -142 -41
-167 12 -7 15 -18 28 -25 28 -6 0 -14 3 -18 6 -8 9 -14 102 -7 114 4 6 7 15 8
20 5 28 37 138 57 199 50 146 24 305 -67 404 -46 51 -173 83 -246 62z"/>
</g>
</svg>
